<svg xmlns="http://www.w3.org/2000/svg" width="200" height="200" version="1.1">
	<rect x="1" y="1" width="10" height="10" stroke="black" stroke-width="1" fill="black"/>
	<rect x="21" y="1" width="10" height="10" stroke="blue" stroke-width="2" fill="white"/>
	<rect x="1" y="21" width="10" height="10" stroke="blue" stroke-width="2" fill="white"/>
	<rect x="11" y="11" width="10" height="10" stroke="blue" stroke-width="2" fill="white"/>
	<rect x="41" y="1" width="10" height="10" stroke="black" stroke-width="0" fill="black"/>
	<rect x="1" y="41" width="10" height="10" stroke="black" stroke-width="0" fill="black"/>
	<rect x="21" y="21" width="10" height="10" stroke="black" stroke-width="0" fill="black"/>
	<rect x="61" y="1" width="10" height="10" stroke="blue" stroke-width="2" fill="white"/>
	<rect x="1" y="61" width="10" height="10" stroke="blue" stroke-width="2" fill="white"/>
	<rect x="31" y="31" width="10" height="10" stroke="blue" stroke-width="2" fill="white"/>
	<rect x="81" y="1" width="10" height="10" stroke="black" stroke-width="0" fill="black"/>
	<rect x="1" y="81" width="10" height="10" stroke="black" stroke-width="0" fill="black"/>
	<rect x="41" y="41" width="10" height="10" stroke="black" stroke-width="0" fill="black"/>
	<rect x="101" y="1" width="10" height="10" stroke="blue" stroke-width="2" fill="white"/>
	<rect x="1" y="101" width="10" height="10" stroke="blue" stroke-width="2" fill="white"/>
	<rect x="51" y="51" width="10" height="10" stroke="blue" stroke-width="2" fill="white"/>
	<rect x="121" y="1" width="10" height="10" stroke="black" stroke-width="0" fill="black"/>
	<rect x="1" y="121" width="10" height="10" stroke="black" stroke-width="0" fill="black"/>
	<rect x="61" y="61" width="10" height="10" stroke="black" stroke-width="0" fill="black"/>
	<rect x="141" y="1" width="10" height="10" stroke="blue" stroke-width="2" fill="white"/>
	<rect x="1" y="141" width="10" height="10" stroke="blue" stroke-width="2" fill="white"/>
	<rect x="71" y="71" width="10" height="10" stroke="blue" stroke-width="2" fill="white"/>
	<rect x="161" y="1" width="10" height="10" stroke="black" stroke-width="0" fill="black"/>
	<rect x="1" y="161" width="10" height="10" stroke="black" stroke-width="0" fill="black"/>
	<rect x="81" y="81" width="10" height="10" stroke="black" stroke-width="0" fill="black"/>
	<rect x="181" y="1" width="10" height="10" stroke="blue" stroke-width="2" fill="white"/>
	<rect x="1" y="181" width="10" height="10" stroke="blue" stroke-width="2" fill="white"/>
	<rect x="91" y="91" width="10" height="10" stroke="blue" stroke-width="2" fill="white"/>
	<rect x="10" y="4" width="10" height="10" stroke="black" stroke-width="0" fill="black"/>
	<rect x="10" y="5" width="10" height="10" stroke="blue" stroke-width="2" fill="white"/>
	<rect x="10" y="6" width="10" height="10" stroke="black" stroke-width="0" fill="black"/>
	<rect x="10" y="7" width="10" height="10" stroke="blue" stroke-width="2" fill="white"/>
	<rect x="10" y="8" width="10" height="10" stroke="black" stroke-width="0" fill="black"/>
	<rect x="10" y="9" width="10" height="10" stroke="blue" stroke-width="2" fill="white"/>
	<rect x="10" y="10" width="10" height="10" stroke="black" stroke-width="0" fill="black"/>
</svg>