<svg xmlns="http://www.w3.org/2000/svg" width="1800.0" height="1800.0" version="1.1">
	<rect x="1" y="1" width="60" height="60" stroke="black" stroke-width="0" fill="blue"/>
	<rect x="121" y="1" width="60" height="60" stroke="blue" stroke-width="2" fill="white"/>
	<rect x="1" y="121" width="60" height="60" stroke="blue" stroke-width="2" fill="white"/>
	<rect x="241" y="1" width="60" height="60" stroke="black" stroke-width="0" fill="black"/>
	<rect x="1" y="241" width="60" height="60" stroke="black" stroke-width="0" fill="black"/>
	<rect x="361" y="1" width="60" height="60" stroke="blue" stroke-width="2" fill="white"/>
	<rect x="1" y="361" width="60" height="60" stroke="blue" stroke-width="2" fill="white"/>
	<rect x="481" y="1" width="60" height="60" stroke="black" stroke-width="0" fill="black"/>
	<rect x="1" y="481" width="60" height="60" stroke="black" stroke-width="0" fill="black"/>
	<rect x="601" y="1" width="60" height="60" stroke="blue" stroke-width="2" fill="white"/>
	<rect x="1" y="601" width="60" height="60" stroke="blue" stroke-width="2" fill="white"/>
	<rect x="721" y="1" width="60" height="60" stroke="black" stroke-width="0" fill="black"/>
	<rect x="1" y="721" width="60" height="60" stroke="black" stroke-width="0" fill="black"/>
	<rect x="841" y="1" width="60" height="60" stroke="blue" stroke-width="2" fill="white"/>
	<rect x="1" y="841" width="60" height="60" stroke="blue" stroke-width="2" fill="white"/>
	<rect x="961" y="1" width="60" height="60" stroke="black" stroke-width="0" fill="black"/>
	<rect x="1" y="961" width="60" height="60" stroke="black" stroke-width="0" fill="black"/>
	<rect x="1081" y="1" width="60" height="60" stroke="blue" stroke-width="2" fill="white"/>
	<rect x="1" y="1081" width="60" height="60" stroke="blue" stroke-width="2" fill="white"/>
	<rect x="1201" y="1" width="60" height="60" stroke="black" stroke-width="0" fill="black"/>
	<rect x="1" y="1201" width="60" height="60" stroke="black" stroke-width="0" fill="black"/>
	<rect x="1321" y="1" width="60" height="60" stroke="blue" stroke-width="2" fill="white"/>
	<rect x="1" y="1321" width="60" height="60" stroke="blue" stroke-width="2" fill="white"/>
	<rect x="1441" y="1" width="60" height="60" stroke="black" stroke-width="0" fill="black"/>
	<rect x="1" y="1441" width="60" height="60" stroke="black" stroke-width="0" fill="black"/>
	<rect x="1561" y="1" width="60" height="60" stroke="blue" stroke-width="2" fill="white"/>
	<rect x="1" y="1561" width="60" height="60" stroke="blue" stroke-width="2" fill="white"/>
	<rect x="1681" y="1" width="60" height="60" stroke="black" stroke-width="0" fill="black"/>
	<rect x="1" y="1681" width="60" height="60" stroke="black" stroke-width="0" fill="black"/>
	<rectnull width="60" height="60" stroke="black" stroke-width="0" fill="black"/>
	<rect x="361" y="361" width="60" height="60" stroke="black" stroke-width="0" fill="black"/>
	<rectnull width="60" height="60" stroke="black" stroke-width="0" fill="black"/>
	<rect x="481" y="481" width="60" height="60" stroke="black" stroke-width="0" fill="black"/>
	<rect x="481" y="481" width="60" height="60" stroke="black" stroke-width="0" fill="black"/>
	<rectnull width="60" height="60" stroke="black" stroke-width="0" fill="black"/>
	<rect x="601" y="601" width="60" height="60" stroke="black" stroke-width="0" fill="black"/>
	<rect x="601" y="601" width="60" height="60" stroke="black" stroke-width="0" fill="black"/>
	<rect x="601" y="601" width="60" height="60" stroke="black" stroke-width="0" fill="black"/>
	<rectnull width="60" height="60" stroke="black" stroke-width="0" fill="black"/>
	<rect x="721" y="721" width="60" height="60" stroke="black" stroke-width="0" fill="black"/>
	<rect x="721" y="721" width="60" height="60" stroke="black" stroke-width="0" fill="black"/>
	<rect x="721" y="721" width="60" height="60" stroke="black" stroke-width="0" fill="black"/>
	<rect x="721" y="721" width="60" height="60" stroke="black" stroke-width="0" fill="black"/>
	<rectnull width="60" height="60" stroke="black" stroke-width="0" fill="black"/>
	<rect x="841" y="841" width="60" height="60" stroke="black" stroke-width="0" fill="black"/>
	<rect x="841" y="841" width="60" height="60" stroke="black" stroke-width="0" fill="black"/>
	<rect x="841" y="841" width="60" height="60" stroke="black" stroke-width="0" fill="black"/>
	<rect x="841" y="841" width="60" height="60" stroke="black" stroke-width="0" fill="black"/>
	<rect x="841" y="841" width="60" height="60" stroke="black" stroke-width="0" fill="black"/>
	<rectnull width="60" height="60" stroke="black" stroke-width="0" fill="black"/>
	<rect x="961" y="961" width="60" height="60" stroke="black" stroke-width="0" fill="black"/>
	<rect x="961" y="961" width="60" height="60" stroke="black" stroke-width="0" fill="black"/>
	<rect x="961" y="961" width="60" height="60" stroke="black" stroke-width="0" fill="black"/>
	<rect x="961" y="961" width="60" height="60" stroke="black" stroke-width="0" fill="black"/>
	<rect x="961" y="961" width="60" height="60" stroke="black" stroke-width="0" fill="black"/>
	<rect x="961" y="961" width="60" height="60" stroke="black" stroke-width="0" fill="black"/>
</svg>