<svg xmlns="http://www.w3.org/2000/svg" width="1384.6153846153845" height="1384.6153846153845" version="1.1">
	<circle cx="31" cy="31" r="30" stroke="black" stroke-width="0" fill="blue"/>
	<circle cx="121.0" cy="35.65" r="30" stroke="blue" stroke-width="2" fill="white"/>
	<circle cx="35.65" cy="121.0" r="30" stroke="blue" stroke-width="2" fill="white"/>
	<circle cx="91" cy="91" r="30" stroke="blue" stroke-width="2" fill="white"/>
	<circle cx="211.0" cy="49.6" r="30" stroke="black" stroke-width="0" fill="black"/>
	<circle cx="49.6" cy="211.0" r="30" stroke="black" stroke-width="0" fill="black"/>
	<circle cx="151" cy="151" r="30" stroke="black" stroke-width="0" fill="black"/>
	<circle cx="301.0" cy="72.85" r="30" stroke="blue" stroke-width="2" fill="white"/>
	<circle cx="72.85" cy="301.0" r="30" stroke="blue" stroke-width="2" fill="white"/>
	<circle cx="211" cy="211" r="30" stroke="blue" stroke-width="2" fill="white"/>
	<circle cx="391.0" cy="105.39999999999999" r="30" stroke="black" stroke-width="0" fill="black"/>
	<circle cx="105.39999999999999" cy="391.0" r="30" stroke="black" stroke-width="0" fill="black"/>
	<circle cx="271" cy="271" r="30" stroke="black" stroke-width="0" fill="black"/>
	<circle cx="481.0" cy="147.25" r="30" stroke="blue" stroke-width="2" fill="white"/>
	<circle cx="147.25" cy="481.0" r="30" stroke="blue" stroke-width="2" fill="white"/>
	<circle cx="331" cy="331" r="30" stroke="blue" stroke-width="2" fill="white"/>
	<circle cx="571.0" cy="198.39999999999998" r="30" stroke="black" stroke-width="0" fill="black"/>
	<circle cx="198.39999999999998" cy="571.0" r="30" stroke="black" stroke-width="0" fill="black"/>
	<circle cx="391" cy="391" r="30" stroke="black" stroke-width="0" fill="black"/>
	<circle cx="661.0" cy="258.84999999999997" r="30" stroke="blue" stroke-width="2" fill="white"/>
	<circle cx="258.84999999999997" cy="661.0" r="30" stroke="blue" stroke-width="2" fill="white"/>
	<circle cx="451" cy="451" r="30" stroke="blue" stroke-width="2" fill="white"/>
	<circle cx="751.0" cy="328.59999999999997" r="30" stroke="black" stroke-width="0" fill="black"/>
	<circle cx="328.59999999999997" cy="751.0" r="30" stroke="black" stroke-width="0" fill="black"/>
	<circle cx="511" cy="511" r="30" stroke="black" stroke-width="0" fill="black"/>
	<circle cx="841.0" cy="407.65000000000003" r="30" stroke="blue" stroke-width="2" fill="white"/>
	<circle cx="407.65000000000003" cy="841.0" r="30" stroke="blue" stroke-width="2" fill="white"/>
	<circle cx="571" cy="571" r="30" stroke="blue" stroke-width="2" fill="white"/>
	<circle cx="931.0" cy="496.0" r="30" stroke="black" stroke-width="0" fill="black"/>
	<circle cx="496.0" cy="931.0" r="30" stroke="black" stroke-width="0" fill="black"/>
	<circle cx="631" cy="631" r="30" stroke="black" stroke-width="0" fill="black"/>
	<circle cx="1021.0" cy="593.65" r="30" stroke="blue" stroke-width="2" fill="white"/>
	<circle cx="593.65" cy="1021.0" r="30" stroke="blue" stroke-width="2" fill="white"/>
	<circle cx="691" cy="691" r="30" stroke="blue" stroke-width="2" fill="white"/>
	<circle cx="1111.0" cy="700.5999999999999" r="30" stroke="black" stroke-width="0" fill="black"/>
	<circle cx="700.5999999999999" cy="1111.0" r="30" stroke="black" stroke-width="0" fill="black"/>
	<circle cx="751" cy="751" r="30" stroke="black" stroke-width="0" fill="black"/>
	<circle cx="1201.0" cy="816.8499999999999" r="30" stroke="blue" stroke-width="2" fill="white"/>
	<circle cx="816.8499999999999" cy="1201.0" r="30" stroke="blue" stroke-width="2" fill="white"/>
	<circle cx="811" cy="811" r="30" stroke="blue" stroke-width="2" fill="white"/>
	<circle cx="1291.0" cy="942.4" r="30" stroke="black" stroke-width="0" fill="black"/>
	<circle cx="942.4" cy="1291.0" r="30" stroke="black" stroke-width="0" fill="black"/>
	<circle cx="871" cy="871" r="30" stroke="black" stroke-width="0" fill="black"/>
</svg>